<?xml version="1.0" encoding="UTF-8"?>
<svg xmlns:x="&ns_extend;"
   xmlns:i="&ns_ai;"
   xmlns:graph="&ns_graphs;"
   xmlns="http://www.w3.org/2000/svg"
   xmlns:xlink="http://www.w3.org/1999/xlink"
   xmlns:a="http://ns.adobe.com/AdobeSVGViewerExtensions/3.0/" version="1.1" id="Layer_1" x="0px" y="0px" width="1920px" height="1920px" viewBox="0 0 1920 1920" xml:space="preserve">
   <path d="M1503.158,808.807c9.625-16.711-10.688-34.634-26.021-22.935l-732.753,557.523c-7.103,5.41-9.077,15.233-4.63,22.935  l204.953,355.672c6.788,11.816,23.815,11.816,30.652,0l332.174-574.466L1503.158,808.807z"></path>
   <path d="M840.289,547.729H296.756c-13.625,0-22.155,14.753-15.334,26.553L612.4,1147.503h1.261  c7.501,13.044,26.769,11.352,31.946-2.689L856.9,571.56C861.148,560.009,852.586,547.729,840.289,547.729"></path>
   <path d="M960.007,414.716h764.334C1553.939,176.539,1275.204,21.107,960.007,21.107c-315.196,0-593.933,155.432-764.351,393.609  H960.007z"></path>
   <path d="M1804.465,548.741l-382.689,665.276l-394.307,683.233c487.307-34.651,871.921-440.641,871.921-936.744  C1899.39,812.79,1865.204,673.106,1804.465,548.741"></path>
   <path d="M499.485,1213.984L115.567,548.741C54.795,673.074,20.608,812.79,20.608,960.539c0,496.534,385.312,902.79,873.2,936.776  L499.485,1213.984z"></path>
   <path d="M1518.957,547.729H1017.71c-7.436,0-14.073,4.63-16.596,11.6l-194.631,530.024c-6.074,16.596,13.293,30.901,27.366,20.146  l695.862-529.99C1543.187,569.252,1535.885,547.729,1518.957,547.729"></path>
</svg>
