<?xml version="1.0" encoding="utf-8"?>
<!-- Generator: Adobe Illustrator 27.9.0, SVG Export Plug-In . SVG Version: 6.00 Build 0)  -->
<svg version="1.1" id="Layer_1" xmlns="http://www.w3.org/2000/svg" xmlns:xlink="http://www.w3.org/1999/xlink" x="0px" y="0px"
	 viewBox="0 0 1156.4 1149.4" style="enable-background:new 0 0 1156.4 1149.4;" xml:space="preserve">
<style type="text/css">
	.st0{fill:none;stroke:#FFFFFF;stroke-width:0.5;stroke-miterlimit:10;}
	.st1{fill:#FFFFFF;}
</style>
<g>
	<circle class="st0" cx="578.7" cy="574.5" r="564.7"/>
	<g>
		<path class="st1" d="M634.8,471.4c0-38.3-27.8-58.8-69.3-58.8c-35.6,0-64.3,16.4-74.4,48.4l-20.5-11.4
			c14.1-40.1,52.9-60.2,94.9-60.2c51.1,0,94,28.3,94,82.1c0,68.9-88.5,90.3-88.5,160.1h-24.2C546.8,551.2,634.8,532,634.8,471.4z
			 M538.6,697.6c0-11.4,8.7-20.5,20.5-20.5c11.4,0,20.5,9.1,20.5,20.5s-9.1,20.5-20.5,20.5C547.3,718.2,538.6,709,538.6,697.6z"/>
	</g>
</g>
</svg>
