<?xml version="1.0" encoding="utf-8"?>
<!-- Generator: Adobe Illustrator 27.9.0, SVG Export Plug-In . SVG Version: 6.00 Build 0)  -->
<svg version="1.1" id="Layer_1" xmlns="http://www.w3.org/2000/svg" xmlns:xlink="http://www.w3.org/1999/xlink" x="0px" y="0px"
	 viewBox="0 0 650 644" style="enable-background:new 0 0 650 644;" xml:space="preserve">
<style type="text/css">
	.st0{fill:#121627;}
	.st1{fill:#FFFFFF;}
</style>
<circle class="st0" cx="325.3" cy="319.9" r="318.4"/>
<g>
	<path class="st1" d="M209.4,258.2h-55.3V322h-48.7V133.1h104v43.2h-55.3v38.8h55.3L209.4,258.2L209.4,258.2z"/>
	<path class="st1" d="M334.4,322H224.7V133h48.8v145.7h61L334.4,322L334.4,322z"/>
	<path class="st1" d="M397.5,322h-48.8V133h48.8V322z"/>
	<path class="st1" d="M396.8,425.4c0,22.4-12,30.5-33.5,30.5h-6.2V524h-48.7v-68.1h-7.1c-21.5,0-33.1-8-33.1-30.5v-90.3h48.7v77.5
		h31.2v-77.5h48.7V425.4z"/>
	<path class="st1" d="M507.7,333.9h-62.1c-21.7,0-33.5,8.6-33.5,31.1V524h49v-51.1h31.1V524h49V365.1
		C541.2,342.5,529.3,333.9,507.7,333.9z M476.6,359c14.1,0,26.6,7,34.3,17.7h-34.3h-34.3C449.9,365.9,462.4,359,476.6,359z
		 M469.7,406.8l8.8-23.8c0.2-0.3,0.4-0.5,0.8-0.5h22.4c0.8,0,1.1,0.9,0.4,1.5l-31.2,23.8C470.3,408.2,469.4,407.6,469.7,406.8z
		 M462.5,409.4c-0.3,0.6-1.1,0.7-1.5,0.1H461l-14.8-25.7c-0.3-0.5,0.1-1.2,0.7-1.2h24.4c0.6,0,0.9,0.5,0.8,1.1L462.5,409.4z
		 M434.4,401.1c0-6.6,1.5-12.9,4.3-18.5l17.3,29.9l17.6,30.6C451.7,441.6,434.4,423.4,434.4,401.1z M476,435.3l-9.2-16
		c-0.3-0.3-0.2-0.8,0.2-1l32.9-24.9c0.7-0.5,1.6,0.3,1.2,1l-8.8,15.1l-14.9,25.8C477,435.8,476.3,435.8,476,435.3z M479.6,443.1
		l17.7-30.6l17.2-29.9c2.7,5.6,4.3,11.9,4.3,18.5C518.7,423.4,501.5,441.6,479.6,443.1z"/>
	<path class="st1" d="M511.8,133h-95.1v189h48.8v-46.4h46.4c21.5,0,33.3-8,33.3-30.6V164C545.2,141.5,533.4,133,511.8,133z
		 M480.5,157.9c14.1,0,26.5,6.9,34.1,17.6h-34.1h-34.1C454.1,164.8,466.5,157.9,480.5,157.9z M473.7,205.5l8.7-23.6
		c0.2-0.3,0.4-0.5,0.7-0.5h22.3c0.7,0,1.1,0.9,0.4,1.5l-31.1,23.6C474.2,206.9,473.4,206.3,473.7,205.5z M466.5,208.1
		c-0.3,0.6-1.1,0.7-1.5,0.1H465l-14.7-25.6c-0.3-0.5,0.1-1.2,0.7-1.2h24.2c0.6,0,0.9,0.5,0.7,1.1L466.5,208.1z M438.6,199.7
		c0-6.6,1.5-12.8,4.3-18.4l17.2,29.7l17.5,30.5C455.8,240.1,438.6,221.9,438.6,199.7z M480,233.8l-9.2-15.9c-0.3-0.3-0.2-0.7,0.2-1
		l32.7-24.8c0.7-0.5,1.6,0.3,1.2,1l-8.7,15.1l-14.8,25.6C481,234.3,480.3,234.3,480,233.8z M483.5,241.6l17.6-30.5l17.1-29.7
		c2.7,5.6,4.3,11.8,4.3,18.4C522.5,221.9,505.3,240.1,483.5,241.6z"/>
</g>
</svg>
