<?xml version="1.0" encoding="utf-8"?>
<!-- Generator: Adobe Illustrator 27.9.0, SVG Export Plug-In . SVG Version: 6.00 Build 0)  -->
<svg version="1.1" id="Layer_1" xmlns="http://www.w3.org/2000/svg" xmlns:xlink="http://www.w3.org/1999/xlink" x="0px" y="0px"
	 viewBox="0 0 709 685" style="enable-background:new 0 0 709 685;" xml:space="preserve">
<style type="text/css">
	.st0{fill:#FFFFFF;}
</style>
<g>
	<path class="st0" d="M351.4,302.5c34.6,0,68.4,3.8,101.1,11c28.7,6.3,56.4,15.3,82.9,26.7v-37c-27.8-11-56.9-19.6-87.1-25.5
		c-31.3-6.1-63.7-9.4-96.9-9.4c-33.2,0-65.6,3.2-96.9,9.4c-30.1,5.9-59.3,14.5-87.1,25.5v37c26.5-11.4,54.2-20.4,82.9-26.7
		C283,306.3,316.8,302.5,351.4,302.5z"/>
	<path class="st0" d="M260.2,393.6c11.4,8.5,27.4,13.3,49.4,7.9l-66-26.4C247.7,381.7,253.2,388.3,260.2,393.6z"/>
	<path class="st0" d="M514.3,222.4v29.8l-22-7.9L514.3,222.4z M351.4,194.1l17.9,17.9l-17.9,17.9L333.5,212L351.4,194.1z
		 M188.5,252.3v-29.8l22,22L188.5,252.3z"/>
	<path class="st0" d="M351.6,20C171.3,20,25.2,166.1,25.2,346.4c0,103.7,48.4,196.2,123.8,255.9v-47.6l18.4,11.1V616
		c9.6,6.6,19.6,12.6,29.9,18.2v-50.3l18.4,11.1v48.3c9.7,4.5,19.7,8.4,29.9,11.9v-59.2l18.4-15.9V661c9.8,2.7,19.7,5,29.9,6.8v-113
		l18.4-15.6v131.3c9.8,1.2,19.8,1.9,29.9,2.2l0-155l0-3.9l9.2-7.8l9.2,7.8v6.8v152.1c10.1-0.3,20-1,29.9-2.2V539.2l18.4,15.6v113
		c10.1-1.8,20.1-4.1,29.9-6.8v-80.9l18.4,15.9v59.3c10.2-3.5,20.2-7.5,29.9-11.9V595l18.4-11.1v50.5c10.3-5.5,20.3-11.6,29.9-18.1
		v-50.3l18.4-11.1v47.9C629.5,542.9,678,450.3,678,346.4C678,166.1,531.9,20,351.6,20z M553.8,530.2l-18.4,11.1l-29.9,18l-18.4,11.1
		l-12.4,7.5l-5.7,3.4l-5-4.3l-6.8-5.8l-18.4-15.6l-29.9-25.3l-18.4-15.6l-29.9-25.3l-9.2-7.8l-9.2,7.8l-29.9,25.3l-18.4,15.6
		L264,555.5l-18.4,15.6l-6.8,5.8l-5,4.3l-5.7-3.4l-12.4-7.5l-18.4-11.1l-29.9-18L149,530.2l-48.8-49.7l67.2,39.3l64.5,38.8
		l84.8-71.9v-68.1c-29.8,8.2-51.7,1.6-67.6-10.2c-16.9-12.6-26.4-31-31.2-43.4l0-0.1l-2.2-0.9v149.4l78.1-42.2l-73.8,62.6
		l-22.8-13.7v-172c-10.1,3.7-20.1,7.8-29.9,12.2v141.8L149,491V162.6v-25.7l16.3,19.9c9.5,11.5,21.4,20.9,35.1,27.4
		c13.1,6.2,27.7,9.7,43.3,9.7c24,0,45.9-8.3,63.2-22.2c13.2-10.6,23.7-24.4,30.3-40.2c5.3-12.8,9.6-22.9,14.3-36.4
		c4.9,13.9,9.4,25.5,15.2,38.5c6.6,15,16.8,28,29.4,38.1c17.3,13.9,39.3,22.2,63.2,22.2c15.5,0,30.2-3.5,43.2-9.7
		c13.6-6.5,25.6-15.9,35.1-27.4l16.3-19.9v25.7V491l-18.4,11.1V360.3c-9.8-4.4-19.7-8.5-29.9-12.2v172l-22.8,13.7L409,471.2
		l78.1,42.2V364l-2.2,0.9l0,0.1c-4.8,12.4-14.3,30.8-31.2,43.4c-15.9,11.9-37.8,18.5-67.6,10.2v68.1l84.7,71.9l64.5-38.8l67.6-39.5
		L553.8,530.2z"/>
	<path class="st0" d="M442.7,393.6c7-5.2,12.5-11.9,16.6-18.5l-66,26.4C415.3,406.9,431.2,402.1,442.7,393.6z"/>
	<path class="st0" d="M487.1,341.8c-12.6-4-25.5-7.5-38.5-10.4c-31.2-6.9-63.7-10.5-97.1-10.5c-33.5,0-66,3.6-97.1,10.5
		c-13.1,2.9-25.9,6.4-38.5,10.4v2.4l113.6,45.4l5.8,2.3v6.2v72.9l16.3-14l16.3,14v-72.9v-6.2l5.8-2.3l113.6-45.4V341.8z"/>
</g>
</svg>
