<?xml version="1.0" encoding="utf-8"?>
<svg version="1.1" id="Layer_1"
	xmlns="http://www.w3.org/2000/svg"
	xmlns:xlink="http://www.w3.org/1999/xlink" x="0px" y="0px" viewBox="0 0 1156.4 1149.4" style="enable-background:new 0 0 1156.4 1149.4;" xml:space="preserve">
	<style type="text/css">
	.st0{fill:#FFFFFF;}
	</style>
	<g>
		<path class="st0" d="M577.2,18c306.8,0,556.3,249.6,556.3,556.3c0,306.7-249.6,556.3-556.3,556.3S20.9,881.1,20.9,574.4
		C20.9,267.6,270.5,18,577.2,18 M577.2,8.5C264.7,8.5,11.4,261.8,11.4,574.4c0,312.5,253.3,565.8,565.8,565.8
		c312.5,0,565.8-253.3,565.8-565.8C1143,261.8,889.7,8.5,577.2,8.5L577.2,8.5z"/>
		<g>
			<path class="st0" d="M633.5,471c0-38.4-27.9-59-69.5-59c-35.7,0-64.5,16.5-74.5,48.5l-20.6-11.4c14.2-40.2,53-60.3,95.1-60.3
			c51.2,0,94.2,28.3,94.2,82.3c0,69-88.7,90.5-88.7,160.4h-24.2C545.2,551,633.5,531.8,633.5,471z M537,697.8
			c0-11.4,8.7-20.6,20.6-20.6c11.4,0,20.6,9.1,20.6,20.6c0,11.4-9.1,20.6-20.6,20.6C545.7,718.3,537,709.2,537,697.8z"/>
		</g>
	</g>
</svg>
